<mxfile host="app.diagrams.net" modified="2023-06-27T08:27:43.676Z" agent="Mozilla/5.0 (Windows NT 10.0; Win64; x64) AppleWebKit/537.36 (KHTML, like Gecko) Chrome/114.0.0.0 Safari/537.36 Edg/114.0.1823.58" version="21.3.4" etag="6dipNhISawr6GCmPcfKp" type="github">
  <diagram name="第 1 页" id="kOARaLgEpp79fm4aczMa">
    <mxGraphModel>
      <root>
        <mxCell id="0" />
        <mxCell id="1" parent="0" />
      </root>
    </mxGraphModel>
  </diagram>
</mxfile>
